:SAMPLES-PER-SECOND 30
:FULLY-SPECIFIED
:DEGREES
524
root  -1.50258 5.77158 15.4833 -51.2922 -7.30269 3.1585
RightUpLeg  -84.1358 -1.43288 4.11291
RightLeg  91.6375 16.6454 -9.68682
RightFoot  32.8866 2.93085 -7.19982
RightToes  5.82077e-011 -3.18055e-015 -2.98177e-016
Spine  27.8029 2.04378 7.58301
Spine1  24.7159 2.44807 -1.08502
HEad  -12.612 -1.51257 3.12712
LeftShoulder1  -3.88251e-019 9.70628e-020 -3.87848e-018
LeftArm  7.4974 81.7169 -20.347
LeftForeArm  -18.4598 -10.6497 1.24497
LeftHand  -6.73174 -7.83371 56.3087
RightShoulder  5.17552 9.35798 25.3035
RightArm  18.2181 -70.781 -8.21224
RightForeArm  -2.84491 6.17183 -6.89004
RightHand  -8.6251 7.77826 -66.9096
LeftUpLeg  -81.7786 1.50592 3.63918
LeftLeg  85.4662 -13.486 21.5695
LeftFoot  34.1796 -2.27002 5.41204
LeftToes  5.91571e-011 -3.44359e-011 -3.93244e-011
525
root  -1.49426 5.76828 15.4582 -51.4959 -7.37465 3.22828
RightUpLeg  -83.943 -1.51199 4.20687
RightLeg  91.5858 16.6405 -9.72868
RightFoot  32.6513 2.88771 -7.13711
RightToes  5.82077e-011 -3.18055e-015 -2.98177e-016
Spine  28.0939 1.96942 8.32012
Spine1  25.0192 2.66086 -1.2975
HEad  -13.4172 -1.91685 4.38279
LeftShoulder1  -3.88251e-019 9.70628e-020 -3.87848e-018
LeftArm  6.73451 80.9006 -21.8833
LeftForeArm  -18.5669 -10.3146 0.812697
LeftHand  -6.74457 -7.88419 56.2117
RightShoulder  5.17859 9.39835 25.2422
RightArm  16.9397 -70.8335 -6.86964
RightForeArm  -2.82388 5.26257 -6.75918
RightHand  -8.91989 8.18144 -67.103
LeftUpLeg  -81.412 0.634773 4.25744
LeftLeg  85.3152 -13.4229 21.3868
LeftFoot  35.0463 -2.00058 4.70552
LeftToes  5.91571e-011 -3.44359e-011 -3.93244e-011
526
root  -1.49341 5.76691 15.4344 -51.4485 -7.27594 3.26664
RightUpLeg  -83.981 -1.68006 4.20164
RightLeg  91.4768 16.6269 -9.75765
RightFoot  32.7592 2.9704 -7.31366
RightToes  5.82077e-011 -3.18055e-015 -2.98177e-016
Spine  28.1354 1.96187 8.47837
Spine1  25.0703 2.63921 -1.25775
HEad  -13.7835 -2.12013 5.21207
LeftShoulder1  -3.88251e-019 9.70628e-020 -3.87848e-018
LeftArm  7.23118 80.4769 -22.0732
LeftForeArm  -18.7593 -10.1362 0.384404
LeftHand  -6.74714 -7.83003 56.4315
RightShoulder  5.23753 9.47191 25.437
RightArm  13.4104 -70.3145 -3.92537
RightForeArm  -1.78349 3.18979 -7.02298
RightHand  -9.23204 8.59308 -67.3563
LeftUpLeg  -81.4465 0.00482398 4.50633
LeftLeg  85.1786 -13.3766 21.4977
LeftFoot  35.1183 -1.90705 4.49054
LeftToes  5.91571e-011 -3.44359e-011 -3.93244e-011
527
root  -1.50024 5.75334 15.421 -51.3782 -6.98635 3.21702
RightUpLeg  -84.0655 -2.00006 4.08082
RightLeg  91.4762 16.6195 -9.68463
RightFoot  32.9149 3.06949 -7.51986
RightToes  5.82077e-011 -3.18055e-015 -2.98177e-016
Spine  28.0724 2.03766 8.15618
Spine1  25.0829 2.45329 -0.916153
HEad  -13.5748 -2.24515 5.79868
LeftShoulder1  -3.88251e-019 9.70628e-020 -3.87848e-018
LeftArm  6.97885 80.2588 -22.8384
LeftForeArm  -19.1661 -9.81941 0.0676701
LeftHand  -6.71564 -7.6979 56.7044
RightShoulder  5.24801 9.46697 25.5065
RightArm  8.84837 -69.5889 -0.128258
RightForeArm  -0.454349 0.610653 -7.52617
RightHand  -9.21591 8.57539 -67.3292
LeftUpLeg  -81.6229 -0.445695 4.43701
LeftLeg  85.1242 -13.3605 21.6151
LeftFoot  34.8111 -1.87828 4.45612
LeftToes  5.91571e-011 -3.44359e-011 -3.93244e-011
528
root  -1.50484 5.73505 15.4113 -51.4393 -6.77782 3.20698
RightUpLeg  -84.0516 -2.18112 3.94289
RightLeg  91.5212 16.6176 -9.59803
RightFoot  32.921 3.07714 -7.53663
RightToes  5.82077e-011 -3.18055e-015 -2.98177e-016
Spine  28.0888 2.27628 7.57038
Spine1  25.1223 2.29277 -0.276295
HEad  -13.021 -2.24647 6.05022
LeftShoulder1  -3.88251e-019 9.70628e-020 -3.87848e-018
LeftArm  5.8234 80.1509 -24.4777
LeftForeArm  -19.9543 -9.31626 -0.181871
LeftHand  -6.64186 -7.49926 56.9337
RightShoulder  5.15616 9.35023 25.2066
RightArm  6.4335 -69.1721 2.09142
RightForeArm  0.141996 -0.758586 -7.70711
RightHand  -8.99883 8.2637 -67.2536
LeftUpLeg  -81.6396 -0.541288 4.23622
LeftLeg  85.1128 -13.359 21.695
LeftFoot  34.5533 -1.82321 4.35687
LeftToes  5.91571e-011 -3.44359e-011 -3.93244e-011
